<svg id="visual" viewBox="0 0 2000 1100" width="2000" height="1100" xmlns="http://www.w3.org/2000/svg" xmlns:xlink="http://www.w3.org/1999/xlink" version="1.1"><g stroke-width="1" stroke-linejoin="bevel"><path d="M992 554L979 550L918 601Z" fill="#e0e0e0" stroke="#e0e0e0"></path><path d="M918 601L1004 663L992 554Z" fill="#bababa" stroke="#bababa"></path><path d="M913 630L1004 663L918 601Z" fill="#bababa" stroke="#bababa"></path><path d="M847 601L893 675L913 630Z" fill="#e0e0e0" stroke="#e0e0e0"></path><path d="M913 630L893 675L1004 663Z" fill="#b3b3b3" stroke="#b3b3b3"></path><path d="M1054 701L1069 664L1004 663Z" fill="#ffffff" stroke="#ffffff"></path><path d="M1004 663L1069 664L992 554Z" fill="#e0e0e0" stroke="#e0e0e0"></path><path d="M945 475L847 601L918 601Z" fill="#c9c9c9" stroke="#c9c9c9"></path><path d="M918 601L847 601L913 630Z" fill="#c2c2c2" stroke="#c2c2c2"></path><path d="M992 554L945 475L979 550Z" fill="#e7e7e7" stroke="#e7e7e7"></path><path d="M979 550L945 475L918 601Z" fill="#d8d8d8" stroke="#d8d8d8"></path><path d="M1063 452L945 475L992 554Z" fill="#bababa" stroke="#bababa"></path><path d="M1038 736L1054 701L1004 663Z" fill="#bababa" stroke="#bababa"></path><path d="M847 601L882 704L893 675Z" fill="#b3b3b3" stroke="#b3b3b3"></path><path d="M893 675L918 728L1004 663Z" fill="#e7e7e7" stroke="#e7e7e7"></path><path d="M882 704L918 728L893 675Z" fill="#d8d8d8" stroke="#d8d8d8"></path><path d="M1167 674L1113 592L1069 664Z" fill="#d8d8d8" stroke="#d8d8d8"></path><path d="M1069 664L1113 592L992 554Z" fill="#e7e7e7" stroke="#e7e7e7"></path><path d="M918 728L1038 736L1004 663Z" fill="#c9c9c9" stroke="#c9c9c9"></path><path d="M1161 734L1167 674L1069 664Z" fill="#efefef" stroke="#efefef"></path><path d="M783 465L804 582L847 601Z" fill="#d8d8d8" stroke="#d8d8d8"></path><path d="M847 601L736 702L882 704Z" fill="#b3b3b3" stroke="#b3b3b3"></path><path d="M1113 592L1063 452L992 554Z" fill="#c9c9c9" stroke="#c9c9c9"></path><path d="M882 704L875 757L918 728Z" fill="#d8d8d8" stroke="#d8d8d8"></path><path d="M918 728L1048 846L1038 736Z" fill="#efefef" stroke="#efefef"></path><path d="M860 749L875 757L882 704Z" fill="#c9c9c9" stroke="#c9c9c9"></path><path d="M736 702L860 749L882 704Z" fill="#ffffff" stroke="#ffffff"></path><path d="M1161 734L1069 664L1054 701Z" fill="#c2c2c2" stroke="#c2c2c2"></path><path d="M1113 592L1165 522L1063 452Z" fill="#f7f7f7" stroke="#f7f7f7"></path><path d="M1216 547L1165 522L1113 592Z" fill="#c2c2c2" stroke="#c2c2c2"></path><path d="M763 414L783 465L945 475Z" fill="#c2c2c2" stroke="#c2c2c2"></path><path d="M945 475L783 465L847 601Z" fill="#efefef" stroke="#efefef"></path><path d="M1038 736L1161 734L1054 701Z" fill="#ffffff" stroke="#ffffff"></path><path d="M1112 812L1161 734L1038 736Z" fill="#c9c9c9" stroke="#c9c9c9"></path><path d="M1355 505L1216 547L1360 696Z" fill="#e7e7e7" stroke="#e7e7e7"></path><path d="M1167 674L1216 547L1113 592Z" fill="#ffffff" stroke="#ffffff"></path><path d="M1022 309L964 329L1063 452Z" fill="#e0e0e0" stroke="#e0e0e0"></path><path d="M860 749L799 788L875 757Z" fill="#efefef" stroke="#efefef"></path><path d="M1048 846L1112 812L1038 736Z" fill="#c2c2c2" stroke="#c2c2c2"></path><path d="M736 702L799 788L860 749Z" fill="#f7f7f7" stroke="#f7f7f7"></path><path d="M736 702L847 601L804 582Z" fill="#b3b3b3" stroke="#b3b3b3"></path><path d="M1048 846L918 728L887 899Z" fill="#f7f7f7" stroke="#f7f7f7"></path><path d="M673 680L736 702L661 577Z" fill="#c9c9c9" stroke="#c9c9c9"></path><path d="M887 899L918 728L875 757Z" fill="#bababa" stroke="#bababa"></path><path d="M1022 309L1063 452L1112 304Z" fill="#b3b3b3" stroke="#b3b3b3"></path><path d="M1063 452L964 329L945 475Z" fill="#efefef" stroke="#efefef"></path><path d="M964 329L763 414L945 475Z" fill="#c2c2c2" stroke="#c2c2c2"></path><path d="M783 465L683 497L804 582Z" fill="#e7e7e7" stroke="#e7e7e7"></path><path d="M768 981L822 842L638 946Z" fill="#c9c9c9" stroke="#c9c9c9"></path><path d="M799 788L822 842L875 757Z" fill="#f7f7f7" stroke="#f7f7f7"></path><path d="M1112 304L1063 452L1208 366Z" fill="#e7e7e7" stroke="#e7e7e7"></path><path d="M763 414L683 497L783 465Z" fill="#b3b3b3" stroke="#b3b3b3"></path><path d="M661 577L736 702L804 582Z" fill="#e0e0e0" stroke="#e0e0e0"></path><path d="M555 863L638 946L799 788Z" fill="#c9c9c9" stroke="#c9c9c9"></path><path d="M822 842L887 899L875 757Z" fill="#efefef" stroke="#efefef"></path><path d="M1112 812L1209 798L1161 734Z" fill="#b3b3b3" stroke="#b3b3b3"></path><path d="M1161 734L1209 798L1167 674Z" fill="#c2c2c2" stroke="#c2c2c2"></path><path d="M1223 905L1209 798L1112 812Z" fill="#c9c9c9" stroke="#c9c9c9"></path><path d="M1223 905L1112 812L1048 846Z" fill="#d0d0d0" stroke="#d0d0d0"></path><path d="M683 497L661 577L804 582Z" fill="#e7e7e7" stroke="#e7e7e7"></path><path d="M765 311L758 366L964 329Z" fill="#d0d0d0" stroke="#d0d0d0"></path><path d="M964 329L758 366L763 414Z" fill="#e0e0e0" stroke="#e0e0e0"></path><path d="M763 414L674 379L683 497Z" fill="#bababa" stroke="#bababa"></path><path d="M1208 366L1063 452L1165 522Z" fill="#e0e0e0" stroke="#e0e0e0"></path><path d="M1280 391L1208 366L1165 522Z" fill="#e7e7e7" stroke="#e7e7e7"></path><path d="M887 899L1007 939L1048 846Z" fill="#c9c9c9" stroke="#c9c9c9"></path><path d="M768 981L839 918L822 842Z" fill="#efefef" stroke="#efefef"></path><path d="M822 842L839 918L887 899Z" fill="#c2c2c2" stroke="#c2c2c2"></path><path d="M887 899L955 1053L1007 939Z" fill="#d8d8d8" stroke="#d8d8d8"></path><path d="M948 195L765 311L964 329Z" fill="#c9c9c9" stroke="#c9c9c9"></path><path d="M758 366L674 379L763 414Z" fill="#efefef" stroke="#efefef"></path><path d="M969 203L964 329L1022 309Z" fill="#d8d8d8" stroke="#d8d8d8"></path><path d="M1208 366L1128 278L1112 304Z" fill="#ffffff" stroke="#ffffff"></path><path d="M1112 304L1105 223L1022 309Z" fill="#bababa" stroke="#bababa"></path><path d="M765 311L674 379L758 366Z" fill="#bababa" stroke="#bababa"></path><path d="M592 482L593 663L661 577Z" fill="#b3b3b3" stroke="#b3b3b3"></path><path d="M1216 547L1280 391L1165 522Z" fill="#ffffff" stroke="#ffffff"></path><path d="M1208 366L1288 349L1128 278Z" fill="#c9c9c9" stroke="#c9c9c9"></path><path d="M1355 505L1280 391L1216 547Z" fill="#c9c9c9" stroke="#c9c9c9"></path><path d="M661 577L593 663L673 680Z" fill="#ffffff" stroke="#ffffff"></path><path d="M638 946L822 842L799 788Z" fill="#d8d8d8" stroke="#d8d8d8"></path><path d="M592 482L661 577L683 497Z" fill="#c9c9c9" stroke="#c9c9c9"></path><path d="M674 379L631 424L683 497Z" fill="#efefef" stroke="#efefef"></path><path d="M1007 939L1223 905L1048 846Z" fill="#ffffff" stroke="#ffffff"></path><path d="M1360 696L1216 547L1167 674Z" fill="#d0d0d0" stroke="#d0d0d0"></path><path d="M1360 696L1167 674L1209 798Z" fill="#c9c9c9" stroke="#c9c9c9"></path><path d="M631 424L592 482L683 497Z" fill="#c2c2c2" stroke="#c2c2c2"></path><path d="M1105 223L969 203L1022 309Z" fill="#efefef" stroke="#efefef"></path><path d="M1356 754L1360 696L1209 798Z" fill="#e7e7e7" stroke="#e7e7e7"></path><path d="M1156 190L1105 223L1128 278Z" fill="#d0d0d0" stroke="#d0d0d0"></path><path d="M1128 278L1105 223L1112 304Z" fill="#ffffff" stroke="#ffffff"></path><path d="M1456 451L1288 349L1280 391Z" fill="#f7f7f7" stroke="#f7f7f7"></path><path d="M1280 391L1288 349L1208 366Z" fill="#c2c2c2" stroke="#c2c2c2"></path><path d="M920 158L948 195L983 136Z" fill="#ffffff" stroke="#ffffff"></path><path d="M969 203L948 195L964 329Z" fill="#e7e7e7" stroke="#e7e7e7"></path><path d="M948 195L756 254L765 311Z" fill="#efefef" stroke="#efefef"></path><path d="M765 311L651 279L674 379Z" fill="#b3b3b3" stroke="#b3b3b3"></path><path d="M674 379L548 275L631 424Z" fill="#e7e7e7" stroke="#e7e7e7"></path><path d="M1347 779L1356 754L1209 798Z" fill="#ffffff" stroke="#ffffff"></path><path d="M1223 905L1347 779L1209 798Z" fill="#bababa" stroke="#bababa"></path><path d="M799 788L736 702L555 863Z" fill="#b3b3b3" stroke="#b3b3b3"></path><path d="M839 918L955 1053L887 899Z" fill="#d8d8d8" stroke="#d8d8d8"></path><path d="M1189 1052L1210 1041L1223 905Z" fill="#e7e7e7" stroke="#e7e7e7"></path><path d="M983 136L948 195L969 203Z" fill="#e7e7e7" stroke="#e7e7e7"></path><path d="M948 195L920 158L756 254Z" fill="#b3b3b3" stroke="#b3b3b3"></path><path d="M1288 349L1156 190L1128 278Z" fill="#f7f7f7" stroke="#f7f7f7"></path><path d="M1105 223L1023 144L969 203Z" fill="#e7e7e7" stroke="#e7e7e7"></path><path d="M768 981L955 1053L839 918Z" fill="#bababa" stroke="#bababa"></path><path d="M677 219L651 279L756 254Z" fill="#e7e7e7" stroke="#e7e7e7"></path><path d="M756 254L651 279L765 311Z" fill="#ffffff" stroke="#ffffff"></path><path d="M454 431L442 551L592 482Z" fill="#e0e0e0" stroke="#e0e0e0"></path><path d="M1156 190L1023 144L1105 223Z" fill="#e0e0e0" stroke="#e0e0e0"></path><path d="M1023 144L983 136L969 203Z" fill="#e0e0e0" stroke="#e0e0e0"></path><path d="M1423 861L1411 766L1347 779Z" fill="#c9c9c9" stroke="#c9c9c9"></path><path d="M1347 779L1411 766L1356 754Z" fill="#efefef" stroke="#efefef"></path><path d="M1356 754L1411 766L1360 696Z" fill="#f7f7f7" stroke="#f7f7f7"></path><path d="M1512 648L1446 472L1355 505Z" fill="#bababa" stroke="#bababa"></path><path d="M555 863L736 702L673 680Z" fill="#e7e7e7" stroke="#e7e7e7"></path><path d="M919 1100L971 1100L955 1053Z" fill="#d8d8d8" stroke="#d8d8d8"></path><path d="M719 187L677 219L756 254Z" fill="#c9c9c9" stroke="#c9c9c9"></path><path d="M877 127L756 254L920 158Z" fill="#c9c9c9" stroke="#c9c9c9"></path><path d="M942 103L877 127L920 158Z" fill="#c9c9c9" stroke="#c9c9c9"></path><path d="M877 127L719 187L756 254Z" fill="#e0e0e0" stroke="#e0e0e0"></path><path d="M1223 905L1368 899L1347 779Z" fill="#f7f7f7" stroke="#f7f7f7"></path><path d="M1210 1041L1327 935L1223 905Z" fill="#e7e7e7" stroke="#e7e7e7"></path><path d="M475 785L555 863L593 663Z" fill="#efefef" stroke="#efefef"></path><path d="M593 663L555 863L673 680Z" fill="#f7f7f7" stroke="#f7f7f7"></path><path d="M1512 648L1355 505L1360 696Z" fill="#b3b3b3" stroke="#b3b3b3"></path><path d="M1355 505L1456 451L1280 391Z" fill="#f7f7f7" stroke="#f7f7f7"></path><path d="M1205 103L1154 109L1156 190Z" fill="#e7e7e7" stroke="#e7e7e7"></path><path d="M1327 935L1368 899L1223 905Z" fill="#c9c9c9" stroke="#c9c9c9"></path><path d="M919 1100L955 1053L768 981Z" fill="#e7e7e7" stroke="#e7e7e7"></path><path d="M1134 1100L1189 1052L1007 939Z" fill="#d0d0d0" stroke="#d0d0d0"></path><path d="M442 551L593 663L592 482Z" fill="#ffffff" stroke="#ffffff"></path><path d="M442 551L474 654L593 663Z" fill="#e0e0e0" stroke="#e0e0e0"></path><path d="M592 482L631 424L454 431Z" fill="#f7f7f7" stroke="#f7f7f7"></path><path d="M983 136L942 103L920 158Z" fill="#efefef" stroke="#efefef"></path><path d="M1037 0L942 103L983 136Z" fill="#e7e7e7" stroke="#e7e7e7"></path><path d="M1037 0L983 136L1023 144Z" fill="#e7e7e7" stroke="#e7e7e7"></path><path d="M555 863L598 935L638 946Z" fill="#e7e7e7" stroke="#e7e7e7"></path><path d="M638 946L663 997L768 981Z" fill="#e0e0e0" stroke="#e0e0e0"></path><path d="M1189 1052L1223 905L1007 939Z" fill="#e0e0e0" stroke="#e0e0e0"></path><path d="M1492 1008L1423 861L1368 899Z" fill="#d8d8d8" stroke="#d8d8d8"></path><path d="M1134 1100L1007 939L955 1053Z" fill="#b3b3b3" stroke="#b3b3b3"></path><path d="M598 935L663 997L638 946Z" fill="#b3b3b3" stroke="#b3b3b3"></path><path d="M801 1100L919 1100L768 981Z" fill="#c9c9c9" stroke="#c9c9c9"></path><path d="M1486 759L1459 732L1411 766Z" fill="#e7e7e7" stroke="#e7e7e7"></path><path d="M1411 766L1459 732L1360 696Z" fill="#c2c2c2" stroke="#c2c2c2"></path><path d="M1523 520L1456 451L1446 472Z" fill="#b3b3b3" stroke="#b3b3b3"></path><path d="M1446 472L1456 451L1355 505Z" fill="#e7e7e7" stroke="#e7e7e7"></path><path d="M555 863L558 909L598 935Z" fill="#b3b3b3" stroke="#b3b3b3"></path><path d="M702 1100L707 1069L644 1100Z" fill="#ffffff" stroke="#ffffff"></path><path d="M498 855L558 909L555 863Z" fill="#c2c2c2" stroke="#c2c2c2"></path><path d="M1444 833L1423 861L1549 955Z" fill="#e0e0e0" stroke="#e0e0e0"></path><path d="M1368 899L1423 861L1347 779Z" fill="#f7f7f7" stroke="#f7f7f7"></path><path d="M971 1100L1134 1100L955 1053Z" fill="#e0e0e0" stroke="#e0e0e0"></path><path d="M1189 1052L1171 1100L1210 1041Z" fill="#d8d8d8" stroke="#d8d8d8"></path><path d="M1205 103L1156 190L1412 270Z" fill="#e0e0e0" stroke="#e0e0e0"></path><path d="M1156 190L1154 109L1023 144Z" fill="#d8d8d8" stroke="#d8d8d8"></path><path d="M707 1069L801 1100L768 981Z" fill="#d0d0d0" stroke="#d0d0d0"></path><path d="M1423 861L1444 833L1411 766Z" fill="#e7e7e7" stroke="#e7e7e7"></path><path d="M474 654L475 785L593 663Z" fill="#ffffff" stroke="#ffffff"></path><path d="M548 275L674 379L651 279Z" fill="#b3b3b3" stroke="#b3b3b3"></path><path d="M474 654L381 793L475 785Z" fill="#ffffff" stroke="#ffffff"></path><path d="M573 151L548 275L677 219Z" fill="#d8d8d8" stroke="#d8d8d8"></path><path d="M677 219L548 275L651 279Z" fill="#e7e7e7" stroke="#e7e7e7"></path><path d="M475 785L498 855L555 863Z" fill="#e0e0e0" stroke="#e0e0e0"></path><path d="M707 1069L663 997L644 1100Z" fill="#b3b3b3" stroke="#b3b3b3"></path><path d="M663 997L707 1069L768 981Z" fill="#c2c2c2" stroke="#c2c2c2"></path><path d="M663 997L539 1100L644 1100Z" fill="#e7e7e7" stroke="#e7e7e7"></path><path d="M1134 1100L1171 1100L1189 1052Z" fill="#bababa" stroke="#bababa"></path><path d="M1210 1041L1381 1100L1327 935Z" fill="#f7f7f7" stroke="#f7f7f7"></path><path d="M1444 833L1486 759L1411 766Z" fill="#ffffff" stroke="#ffffff"></path><path d="M1459 732L1512 648L1360 696Z" fill="#c9c9c9" stroke="#c9c9c9"></path><path d="M548 275L454 431L631 424Z" fill="#d8d8d8" stroke="#d8d8d8"></path><path d="M1486 759L1512 648L1459 732Z" fill="#b3b3b3" stroke="#b3b3b3"></path><path d="M1412 270L1156 190L1288 349Z" fill="#d0d0d0" stroke="#d0d0d0"></path><path d="M1056 0L1037 0L1023 144Z" fill="#e7e7e7" stroke="#e7e7e7"></path><path d="M1494 288L1412 270L1456 451Z" fill="#c9c9c9" stroke="#c9c9c9"></path><path d="M1456 451L1412 270L1288 349Z" fill="#d0d0d0" stroke="#d0d0d0"></path><path d="M1512 648L1523 520L1446 472Z" fill="#e0e0e0" stroke="#e0e0e0"></path><path d="M539 1100L598 935L558 909Z" fill="#e0e0e0" stroke="#e0e0e0"></path><path d="M707 1069L702 1100L801 1100Z" fill="#c9c9c9" stroke="#c9c9c9"></path><path d="M1523 520L1518 439L1456 451Z" fill="#d8d8d8" stroke="#d8d8d8"></path><path d="M721 0L653 123L719 187Z" fill="#e7e7e7" stroke="#e7e7e7"></path><path d="M719 187L653 123L677 219Z" fill="#d0d0d0" stroke="#d0d0d0"></path><path d="M721 0L719 187L877 127Z" fill="#efefef" stroke="#efefef"></path><path d="M474 261L433 392L548 275Z" fill="#d8d8d8" stroke="#d8d8d8"></path><path d="M548 275L433 392L454 431Z" fill="#efefef" stroke="#efefef"></path><path d="M454 431L405 476L442 551Z" fill="#b3b3b3" stroke="#b3b3b3"></path><path d="M433 392L405 476L454 431Z" fill="#e0e0e0" stroke="#e0e0e0"></path><path d="M340 570L381 793L474 654Z" fill="#d0d0d0" stroke="#d0d0d0"></path><path d="M475 785L458 899L498 855Z" fill="#b3b3b3" stroke="#b3b3b3"></path><path d="M498 855L458 899L558 909Z" fill="#ffffff" stroke="#ffffff"></path><path d="M381 793L458 899L475 785Z" fill="#e7e7e7" stroke="#e7e7e7"></path><path d="M539 1100L663 997L598 935Z" fill="#d0d0d0" stroke="#d0d0d0"></path><path d="M653 123L573 151L677 219Z" fill="#bababa" stroke="#bababa"></path><path d="M1549 955L1539 796L1444 833Z" fill="#d0d0d0" stroke="#d0d0d0"></path><path d="M1444 833L1539 796L1486 759Z" fill="#c2c2c2" stroke="#c2c2c2"></path><path d="M1486 759L1539 796L1512 648Z" fill="#c9c9c9" stroke="#c9c9c9"></path><path d="M1512 648L1570 541L1523 520Z" fill="#d0d0d0" stroke="#d0d0d0"></path><path d="M1492 1008L1368 899L1327 935Z" fill="#d8d8d8" stroke="#d8d8d8"></path><path d="M573 151L474 261L548 275Z" fill="#e0e0e0" stroke="#e0e0e0"></path><path d="M258 577L340 570L215 470Z" fill="#d8d8d8" stroke="#d8d8d8"></path><path d="M1666 653L1570 541L1512 648Z" fill="#d0d0d0" stroke="#d0d0d0"></path><path d="M1523 520L1586 512L1518 439Z" fill="#bababa" stroke="#bababa"></path><path d="M1056 0L1023 144L1154 109Z" fill="#efefef" stroke="#efefef"></path><path d="M942 103L882 0L877 127Z" fill="#efefef" stroke="#efefef"></path><path d="M1277 0L1056 0L1154 109Z" fill="#e0e0e0" stroke="#e0e0e0"></path><path d="M1037 0L882 0L942 103Z" fill="#d0d0d0" stroke="#d0d0d0"></path><path d="M653 123L540 0L573 151Z" fill="#bababa" stroke="#bababa"></path><path d="M1518 439L1494 288L1456 451Z" fill="#bababa" stroke="#bababa"></path><path d="M1412 270L1369 58L1205 103Z" fill="#c9c9c9" stroke="#c9c9c9"></path><path d="M1205 103L1277 0L1154 109Z" fill="#ffffff" stroke="#ffffff"></path><path d="M1570 267L1494 288L1625 302Z" fill="#d0d0d0" stroke="#d0d0d0"></path><path d="M882 0L855 0L877 127Z" fill="#c9c9c9" stroke="#c9c9c9"></path><path d="M340 570L474 654L442 551Z" fill="#e7e7e7" stroke="#e7e7e7"></path><path d="M1686 627L1586 512L1570 541Z" fill="#efefef" stroke="#efefef"></path><path d="M1570 541L1586 512L1523 520Z" fill="#b3b3b3" stroke="#b3b3b3"></path><path d="M1570 267L1468 215L1494 288Z" fill="#ffffff" stroke="#ffffff"></path><path d="M1494 288L1468 215L1412 270Z" fill="#efefef" stroke="#efefef"></path><path d="M340 570L405 476L287 398Z" fill="#b3b3b3" stroke="#b3b3b3"></path><path d="M405 476L340 570L442 551Z" fill="#c2c2c2" stroke="#c2c2c2"></path><path d="M365 179L432 257L409 108Z" fill="#c2c2c2" stroke="#c2c2c2"></path><path d="M474 261L432 257L433 392Z" fill="#d0d0d0" stroke="#d0d0d0"></path><path d="M381 793L408 910L458 899Z" fill="#e7e7e7" stroke="#e7e7e7"></path><path d="M458 899L539 1100L558 909Z" fill="#f7f7f7" stroke="#f7f7f7"></path><path d="M1171 1100L1381 1100L1210 1041Z" fill="#b3b3b3" stroke="#b3b3b3"></path><path d="M855 0L721 0L877 127Z" fill="#e0e0e0" stroke="#e0e0e0"></path><path d="M409 108L432 257L474 261Z" fill="#e0e0e0" stroke="#e0e0e0"></path><path d="M391 1098L539 1100L458 899Z" fill="#e7e7e7" stroke="#e7e7e7"></path><path d="M1381 1100L1492 1008L1327 935Z" fill="#d8d8d8" stroke="#d8d8d8"></path><path d="M340 570L326 794L381 793Z" fill="#e0e0e0" stroke="#e0e0e0"></path><path d="M381 793L319 893L408 910Z" fill="#e7e7e7" stroke="#e7e7e7"></path><path d="M408 910L391 1098L458 899Z" fill="#e0e0e0" stroke="#e0e0e0"></path><path d="M1468 215L1369 58L1412 270Z" fill="#ffffff" stroke="#ffffff"></path><path d="M1351 30L1277 0L1205 103Z" fill="#e7e7e7" stroke="#e7e7e7"></path><path d="M1492 1008L1549 955L1423 861Z" fill="#c2c2c2" stroke="#c2c2c2"></path><path d="M1658 747L1666 653L1512 648Z" fill="#c2c2c2" stroke="#c2c2c2"></path><path d="M1381 1100L1475 1063L1492 1008Z" fill="#ffffff" stroke="#ffffff"></path><path d="M1492 1008L1570 960L1549 955Z" fill="#ffffff" stroke="#ffffff"></path><path d="M1625 302L1494 288L1518 439Z" fill="#bababa" stroke="#bababa"></path><path d="M1468 215L1520 129L1369 58Z" fill="#efefef" stroke="#efefef"></path><path d="M1446 0L1351 30L1369 58Z" fill="#c9c9c9" stroke="#c9c9c9"></path><path d="M1369 58L1351 30L1205 103Z" fill="#b3b3b3" stroke="#b3b3b3"></path><path d="M1351 30L1310 0L1277 0Z" fill="#b3b3b3" stroke="#b3b3b3"></path><path d="M1381 1100L1456 1100L1475 1063Z" fill="#d0d0d0" stroke="#d0d0d0"></path><path d="M1639 1100L1570 960L1492 1008Z" fill="#c9c9c9" stroke="#c9c9c9"></path><path d="M1658 747L1512 648L1539 796Z" fill="#d0d0d0" stroke="#d0d0d0"></path><path d="M1671 377L1625 302L1518 439Z" fill="#e0e0e0" stroke="#e0e0e0"></path><path d="M1639 1100L1492 1008L1475 1063Z" fill="#b3b3b3" stroke="#b3b3b3"></path><path d="M1549 955L1570 960L1539 796Z" fill="#d8d8d8" stroke="#d8d8d8"></path><path d="M1456 1100L1461 1100L1475 1063Z" fill="#d8d8d8" stroke="#d8d8d8"></path><path d="M1704 863L1658 747L1539 796Z" fill="#d8d8d8" stroke="#d8d8d8"></path><path d="M287 398L405 476L433 392Z" fill="#e7e7e7" stroke="#e7e7e7"></path><path d="M340 570L277 777L326 794Z" fill="#e7e7e7" stroke="#e7e7e7"></path><path d="M280 372L287 398L433 392Z" fill="#bababa" stroke="#bababa"></path><path d="M277 777L319 893L326 794Z" fill="#d0d0d0" stroke="#d0d0d0"></path><path d="M326 794L319 893L381 793Z" fill="#e0e0e0" stroke="#e0e0e0"></path><path d="M258 577L277 777L340 570Z" fill="#f7f7f7" stroke="#f7f7f7"></path><path d="M1739 610L1686 627L1666 653Z" fill="#d0d0d0" stroke="#d0d0d0"></path><path d="M1666 653L1686 627L1570 541Z" fill="#c2c2c2" stroke="#c2c2c2"></path><path d="M1671 377L1518 439L1586 512Z" fill="#f7f7f7" stroke="#f7f7f7"></path><path d="M1570 267L1520 129L1468 215Z" fill="#b3b3b3" stroke="#b3b3b3"></path><path d="M1617 192L1520 129L1570 267Z" fill="#e7e7e7" stroke="#e7e7e7"></path><path d="M1351 30L1446 0L1310 0Z" fill="#ffffff" stroke="#ffffff"></path><path d="M287 398L215 470L340 570Z" fill="#b3b3b3" stroke="#b3b3b3"></path><path d="M432 257L280 372L433 392Z" fill="#ffffff" stroke="#ffffff"></path><path d="M365 179L280 372L432 257Z" fill="#d8d8d8" stroke="#d8d8d8"></path><path d="M319 1100L339 964L266 1100Z" fill="#e0e0e0" stroke="#e0e0e0"></path><path d="M319 893L339 964L408 910Z" fill="#ffffff" stroke="#ffffff"></path><path d="M1745 522L1671 377L1586 512Z" fill="#e7e7e7" stroke="#e7e7e7"></path><path d="M1625 302L1617 192L1570 267Z" fill="#c9c9c9" stroke="#c9c9c9"></path><path d="M409 108L474 261L573 151Z" fill="#bababa" stroke="#bababa"></path><path d="M721 0L540 0L653 123Z" fill="#c2c2c2" stroke="#c2c2c2"></path><path d="M540 0L536 0L573 151Z" fill="#bababa" stroke="#bababa"></path><path d="M258 577L248 774L277 777Z" fill="#f7f7f7" stroke="#f7f7f7"></path><path d="M277 777L184 880L319 893Z" fill="#f7f7f7" stroke="#f7f7f7"></path><path d="M487 1L409 108L573 151Z" fill="#efefef" stroke="#efefef"></path><path d="M319 1100L391 1098L339 964Z" fill="#efefef" stroke="#efefef"></path><path d="M339 964L391 1098L408 910Z" fill="#ffffff" stroke="#ffffff"></path><path d="M1686 627L1733 564L1586 512Z" fill="#e7e7e7" stroke="#e7e7e7"></path><path d="M1739 610L1733 564L1686 627Z" fill="#efefef" stroke="#efefef"></path><path d="M1694 310L1625 302L1671 377Z" fill="#d8d8d8" stroke="#d8d8d8"></path><path d="M1691 223L1617 192L1625 302Z" fill="#bababa" stroke="#bababa"></path><path d="M280 372L215 470L287 398Z" fill="#c2c2c2" stroke="#c2c2c2"></path><path d="M258 577L203 597L248 774Z" fill="#c9c9c9" stroke="#c9c9c9"></path><path d="M167 458L215 470L280 372Z" fill="#c9c9c9" stroke="#c9c9c9"></path><path d="M1552 0L1446 0L1520 129Z" fill="#f7f7f7" stroke="#f7f7f7"></path><path d="M1520 129L1446 0L1369 58Z" fill="#c2c2c2" stroke="#c2c2c2"></path><path d="M215 470L203 597L258 577Z" fill="#ffffff" stroke="#ffffff"></path><path d="M1859 600L1739 610L1869 689Z" fill="#b3b3b3" stroke="#b3b3b3"></path><path d="M1658 747L1739 610L1666 653Z" fill="#e7e7e7" stroke="#e7e7e7"></path><path d="M536 0L487 1L573 151Z" fill="#bababa" stroke="#bababa"></path><path d="M536 0L479 0L487 1Z" fill="#e7e7e7" stroke="#e7e7e7"></path><path d="M487 1L479 0L409 108Z" fill="#bababa" stroke="#bababa"></path><path d="M1791 567L1745 522L1733 564Z" fill="#c2c2c2" stroke="#c2c2c2"></path><path d="M1733 564L1745 522L1586 512Z" fill="#b3b3b3" stroke="#b3b3b3"></path><path d="M1705 916L1704 863L1570 960Z" fill="#e0e0e0" stroke="#e0e0e0"></path><path d="M1570 960L1704 863L1539 796Z" fill="#f7f7f7" stroke="#f7f7f7"></path><path d="M1735 290L1694 310L1775 413Z" fill="#b3b3b3" stroke="#b3b3b3"></path><path d="M1646 1100L1705 916L1570 960Z" fill="#efefef" stroke="#efefef"></path><path d="M1859 600L1791 567L1739 610Z" fill="#c9c9c9" stroke="#c9c9c9"></path><path d="M264 177L222 313L365 179Z" fill="#e0e0e0" stroke="#e0e0e0"></path><path d="M365 179L222 313L280 372Z" fill="#efefef" stroke="#efefef"></path><path d="M215 470L136 510L203 597Z" fill="#d8d8d8" stroke="#d8d8d8"></path><path d="M385 41L365 179L409 108Z" fill="#c2c2c2" stroke="#c2c2c2"></path><path d="M479 0L385 41L409 108Z" fill="#bababa" stroke="#bababa"></path><path d="M1735 290L1691 223L1694 310Z" fill="#d0d0d0" stroke="#d0d0d0"></path><path d="M1694 310L1691 223L1625 302Z" fill="#ffffff" stroke="#ffffff"></path><path d="M1665 102L1552 0L1520 129Z" fill="#d0d0d0" stroke="#d0d0d0"></path><path d="M222 313L167 458L280 372Z" fill="#d8d8d8" stroke="#d8d8d8"></path><path d="M203 597L165 742L248 774Z" fill="#b3b3b3" stroke="#b3b3b3"></path><path d="M105 610L165 742L203 597Z" fill="#f7f7f7" stroke="#f7f7f7"></path><path d="M248 774L184 880L277 777Z" fill="#d8d8d8" stroke="#d8d8d8"></path><path d="M184 880L339 964L319 893Z" fill="#e0e0e0" stroke="#e0e0e0"></path><path d="M391 1098L319 1100L539 1100Z" fill="#efefef" stroke="#efefef"></path><path d="M1739 610L1791 567L1733 564Z" fill="#c2c2c2" stroke="#c2c2c2"></path><path d="M1775 413L1694 310L1671 377Z" fill="#c2c2c2" stroke="#c2c2c2"></path><path d="M1842 830L1658 747L1704 863Z" fill="#e7e7e7" stroke="#e7e7e7"></path><path d="M385 41L264 177L365 179Z" fill="#e0e0e0" stroke="#e0e0e0"></path><path d="M104 515L136 510L167 458Z" fill="#bababa" stroke="#bababa"></path><path d="M1775 413L1671 377L1745 522Z" fill="#c2c2c2" stroke="#c2c2c2"></path><path d="M1830 427L1775 413L1745 522Z" fill="#f7f7f7" stroke="#f7f7f7"></path><path d="M1461 1100L1639 1100L1475 1063Z" fill="#d8d8d8" stroke="#d8d8d8"></path><path d="M165 742L184 880L248 774Z" fill="#d8d8d8" stroke="#d8d8d8"></path><path d="M1665 102L1520 129L1617 192Z" fill="#e7e7e7" stroke="#e7e7e7"></path><path d="M1700 169L1617 192L1691 223Z" fill="#ffffff" stroke="#ffffff"></path><path d="M104 515L167 458L0 405Z" fill="#b3b3b3" stroke="#b3b3b3"></path><path d="M167 458L136 510L215 470Z" fill="#f7f7f7" stroke="#f7f7f7"></path><path d="M1639 1100L1646 1100L1570 960Z" fill="#b3b3b3" stroke="#b3b3b3"></path><path d="M1786 265L1691 223L1735 290Z" fill="#f7f7f7" stroke="#f7f7f7"></path><path d="M1786 265L1700 169L1691 223Z" fill="#f7f7f7" stroke="#f7f7f7"></path><path d="M1700 169L1665 102L1617 192Z" fill="#f7f7f7" stroke="#f7f7f7"></path><path d="M252 1100L266 1100L339 964Z" fill="#e0e0e0" stroke="#e0e0e0"></path><path d="M1727 1100L1781 897L1705 916Z" fill="#efefef" stroke="#efefef"></path><path d="M1705 916L1781 897L1704 863Z" fill="#b3b3b3" stroke="#b3b3b3"></path><path d="M136 510L105 610L203 597Z" fill="#e0e0e0" stroke="#e0e0e0"></path><path d="M114 886L139 904L184 880Z" fill="#efefef" stroke="#efefef"></path><path d="M0 556L103 612L105 610Z" fill="#ffffff" stroke="#ffffff"></path><path d="M105 610L103 612L165 742Z" fill="#e0e0e0" stroke="#e0e0e0"></path><path d="M123 344L167 458L222 313Z" fill="#e0e0e0" stroke="#e0e0e0"></path><path d="M136 510L104 515L105 610Z" fill="#c2c2c2" stroke="#c2c2c2"></path><path d="M146 991L252 1100L339 964Z" fill="#d0d0d0" stroke="#d0d0d0"></path><path d="M1791 567L1830 427L1745 522Z" fill="#d0d0d0" stroke="#d0d0d0"></path><path d="M1838 396L1786 265L1735 290Z" fill="#d8d8d8" stroke="#d8d8d8"></path><path d="M1882 468L1830 427L1791 567Z" fill="#f7f7f7" stroke="#f7f7f7"></path><path d="M1838 396L1735 290L1775 413Z" fill="#efefef" stroke="#efefef"></path><path d="M1700 169L1697 48L1665 102Z" fill="#f7f7f7" stroke="#f7f7f7"></path><path d="M114 886L184 880L165 742Z" fill="#f7f7f7" stroke="#f7f7f7"></path><path d="M184 880L146 991L339 964Z" fill="#ffffff" stroke="#ffffff"></path><path d="M87 274L123 344L222 313Z" fill="#d8d8d8" stroke="#d8d8d8"></path><path d="M1869 689L1739 610L1658 747Z" fill="#c2c2c2" stroke="#c2c2c2"></path><path d="M385 41L314 0L264 177Z" fill="#efefef" stroke="#efefef"></path><path d="M264 177L163 196L222 313Z" fill="#d0d0d0" stroke="#d0d0d0"></path><path d="M479 0L314 0L385 41Z" fill="#f7f7f7" stroke="#f7f7f7"></path><path d="M1882 468L1838 396L1830 427Z" fill="#c2c2c2" stroke="#c2c2c2"></path><path d="M1830 427L1838 396L1775 413Z" fill="#e0e0e0" stroke="#e0e0e0"></path><path d="M1851 861L1842 830L1781 897Z" fill="#c2c2c2" stroke="#c2c2c2"></path><path d="M1781 897L1842 830L1704 863Z" fill="#f7f7f7" stroke="#f7f7f7"></path><path d="M0 735L114 886L165 742Z" fill="#bababa" stroke="#bababa"></path><path d="M139 904L146 991L184 880Z" fill="#d8d8d8" stroke="#d8d8d8"></path><path d="M1842 830L1869 689L1658 747Z" fill="#e7e7e7" stroke="#e7e7e7"></path><path d="M1859 600L1882 468L1791 567Z" fill="#d8d8d8" stroke="#d8d8d8"></path><path d="M181 159L163 196L264 177Z" fill="#bababa" stroke="#bababa"></path><path d="M314 0L181 159L264 177Z" fill="#e0e0e0" stroke="#e0e0e0"></path><path d="M1646 1100L1727 1100L1705 916Z" fill="#efefef" stroke="#efefef"></path><path d="M84 962L146 991L139 904Z" fill="#c9c9c9" stroke="#c9c9c9"></path><path d="M1745 0L1697 48L1700 169Z" fill="#c2c2c2" stroke="#c2c2c2"></path><path d="M1665 102L1697 48L1552 0Z" fill="#b3b3b3" stroke="#b3b3b3"></path><path d="M1899 1063L1851 861L1781 897Z" fill="#bababa" stroke="#bababa"></path><path d="M1842 830L1946 850L1869 689Z" fill="#efefef" stroke="#efefef"></path><path d="M1949 571L1882 468L1859 600Z" fill="#c9c9c9" stroke="#c9c9c9"></path><path d="M1838 396L1853 266L1786 265Z" fill="#d8d8d8" stroke="#d8d8d8"></path><path d="M1745 0L1697 0L1697 48Z" fill="#c2c2c2" stroke="#c2c2c2"></path><path d="M97 72L145 176L181 159Z" fill="#c9c9c9" stroke="#c9c9c9"></path><path d="M181 159L145 176L163 196Z" fill="#e0e0e0" stroke="#e0e0e0"></path><path d="M163 196L87 274L222 313Z" fill="#d0d0d0" stroke="#d0d0d0"></path><path d="M145 176L87 274L163 196Z" fill="#ffffff" stroke="#ffffff"></path><path d="M0 405L0 556L104 515Z" fill="#b3b3b3" stroke="#b3b3b3"></path><path d="M104 515L0 556L105 610Z" fill="#e0e0e0" stroke="#e0e0e0"></path><path d="M0 868L84 962L114 886Z" fill="#d8d8d8" stroke="#d8d8d8"></path><path d="M1853 266L1700 169L1786 265Z" fill="#d8d8d8" stroke="#d8d8d8"></path><path d="M1697 48L1697 0L1552 0Z" fill="#f7f7f7" stroke="#f7f7f7"></path><path d="M1859 266L1853 266L1838 396Z" fill="#d8d8d8" stroke="#d8d8d8"></path><path d="M2000 245L1859 266L1838 396Z" fill="#d8d8d8" stroke="#d8d8d8"></path><path d="M1896 0L1745 0L1700 169Z" fill="#e0e0e0" stroke="#e0e0e0"></path><path d="M114 886L84 962L139 904Z" fill="#c2c2c2" stroke="#c2c2c2"></path><path d="M146 991L142 1100L252 1100Z" fill="#d0d0d0" stroke="#d0d0d0"></path><path d="M0 698L165 742L103 612Z" fill="#e0e0e0" stroke="#e0e0e0"></path><path d="M84 962L142 1100L146 991Z" fill="#ffffff" stroke="#ffffff"></path><path d="M0 405L167 458L123 344Z" fill="#e0e0e0" stroke="#e0e0e0"></path><path d="M0 556L0 698L103 612Z" fill="#f7f7f7" stroke="#f7f7f7"></path><path d="M1869 689L1949 571L1859 600Z" fill="#c9c9c9" stroke="#c9c9c9"></path><path d="M1882 468L2000 245L1838 396Z" fill="#bababa" stroke="#bababa"></path><path d="M2000 681L1949 571L1869 689Z" fill="#d8d8d8" stroke="#d8d8d8"></path><path d="M0 698L0 735L165 742Z" fill="#b3b3b3" stroke="#b3b3b3"></path><path d="M1896 0L1700 169L1853 266Z" fill="#bababa" stroke="#bababa"></path><path d="M0 339L0 405L123 344Z" fill="#d0d0d0" stroke="#d0d0d0"></path><path d="M0 339L123 344L87 274Z" fill="#f7f7f7" stroke="#f7f7f7"></path><path d="M0 269L0 339L87 274Z" fill="#b3b3b3" stroke="#b3b3b3"></path><path d="M0 735L0 868L114 886Z" fill="#efefef" stroke="#efefef"></path><path d="M84 962L0 1035L142 1100Z" fill="#efefef" stroke="#efefef"></path><path d="M1975 963L1946 850L1851 861Z" fill="#bababa" stroke="#bababa"></path><path d="M1851 861L1946 850L1842 830Z" fill="#c2c2c2" stroke="#c2c2c2"></path><path d="M111 0L97 72L181 159Z" fill="#e0e0e0" stroke="#e0e0e0"></path><path d="M145 176L0 269L87 274Z" fill="#e0e0e0" stroke="#e0e0e0"></path><path d="M97 72L0 269L145 176Z" fill="#d0d0d0" stroke="#d0d0d0"></path><path d="M2000 691L2000 681L1869 689Z" fill="#b3b3b3" stroke="#b3b3b3"></path><path d="M1949 571L2000 499L1882 468Z" fill="#d0d0d0" stroke="#d0d0d0"></path><path d="M2000 681L2000 517L1949 571Z" fill="#b3b3b3" stroke="#b3b3b3"></path><path d="M1859 266L1896 0L1853 266Z" fill="#e7e7e7" stroke="#e7e7e7"></path><path d="M2000 814L2000 691L1869 689Z" fill="#f7f7f7" stroke="#f7f7f7"></path><path d="M2000 517L2000 499L1949 571Z" fill="#e0e0e0" stroke="#e0e0e0"></path><path d="M1727 1100L1899 1063L1781 897Z" fill="#d0d0d0" stroke="#d0d0d0"></path><path d="M1946 850L2000 814L1869 689Z" fill="#e0e0e0" stroke="#e0e0e0"></path><path d="M0 868L0 979L84 962Z" fill="#d0d0d0" stroke="#d0d0d0"></path><path d="M314 0L111 0L181 159Z" fill="#f7f7f7" stroke="#f7f7f7"></path><path d="M97 72L0 11L0 269Z" fill="#c9c9c9" stroke="#c9c9c9"></path><path d="M2000 833L2000 814L1946 850Z" fill="#ffffff" stroke="#ffffff"></path><path d="M1975 963L2000 833L1946 850Z" fill="#d8d8d8" stroke="#d8d8d8"></path><path d="M111 0L97 0L97 72Z" fill="#b3b3b3" stroke="#b3b3b3"></path><path d="M0 979L0 1035L84 962Z" fill="#ffffff" stroke="#ffffff"></path><path d="M1899 1063L1975 963L1851 861Z" fill="#ffffff" stroke="#ffffff"></path><path d="M2000 499L2000 245L1882 468Z" fill="#efefef" stroke="#efefef"></path><path d="M0 1035L0 1100L142 1100Z" fill="#e0e0e0" stroke="#e0e0e0"></path><path d="M1899 1063L2000 981L1975 963Z" fill="#b3b3b3" stroke="#b3b3b3"></path><path d="M1975 963L2000 981L2000 833Z" fill="#c9c9c9" stroke="#c9c9c9"></path><path d="M1727 1100L1951 1100L1899 1063Z" fill="#f7f7f7" stroke="#f7f7f7"></path><path d="M1899 1063L1951 1100L2000 981Z" fill="#f7f7f7" stroke="#f7f7f7"></path><path d="M2000 245L2000 207L1859 266Z" fill="#e0e0e0" stroke="#e0e0e0"></path><path d="M2000 170L1896 0L1859 266Z" fill="#bababa" stroke="#bababa"></path><path d="M2000 207L2000 170L1859 266Z" fill="#b3b3b3" stroke="#b3b3b3"></path><path d="M97 0L0 11L97 72Z" fill="#e0e0e0" stroke="#e0e0e0"></path><path d="M97 0L0 0L0 11Z" fill="#efefef" stroke="#efefef"></path><path d="M1951 1100L2000 1100L2000 981Z" fill="#ffffff" stroke="#ffffff"></path><path d="M2000 170L1966 17L1896 0Z" fill="#e0e0e0" stroke="#e0e0e0"></path><path d="M2000 0L1999 0L1966 17Z" fill="#efefef" stroke="#efefef"></path><path d="M1966 17L1999 0L1896 0Z" fill="#bababa" stroke="#bababa"></path><path d="M2000 170L2000 0L1966 17Z" fill="#c9c9c9" stroke="#c9c9c9"></path></g></svg>